<?xml version="1.0" encoding="UTF-8"?>
<svg xmlns="http://www.w3.org/2000/svg" viewBox="0 0 13027.96 2232.38">
  <g id="road">
    <line id="Line" x1="34.61" y1="1189.9" x2="12994.6" y2="1189.91" style="fill: none; stroke: #000; stroke-miterlimit: 100; stroke-width: 5px;"/>
  </g>
  <g id="road_point">
    <circle id="s" cx="32.98" cy="1189.91" r="24.98" style="fill: #fff; stroke: #000; stroke-miterlimit: 10; stroke-width: 15.99px;"/>
    <circle id="s-2" data-name="s" cx="12994.98" cy="1189.91" r="24.98" style="fill: #fff; stroke: #000; stroke-miterlimit: 10; stroke-width: 15.99px;"/>
    <path id="f" d="M4670.6,1176.91c7.18,0,13,5.82,13,13s-5.82,13-13,13-13-5.82-13-13,5.82-13,13-13Z" style="fill-rule: evenodd;"/>
    <path id="f-2" data-name="f" d="M5140.6,1176.91c7.18,0,13,5.82,13,13s-5.82,13-13,13-13-5.82-13-13,5.82-13,13-13Z" style="fill-rule: evenodd;"/>
    <path id="f-3" data-name="f" d="M6897.6,1176.91c7.18,0,13,5.82,13,13s-5.82,13-13,13-13-5.82-13-13,5.82-13,13-13Z" style="fill-rule: evenodd;"/>
    <path id="f-4" data-name="f" d="M7645.6,1176.97c7.18,0,13,5.81,13,12.97s-5.82,12.97-13,12.97-13-5.81-13-12.97,5.82-12.97,13-12.97Z" style="fill-rule: evenodd;"/>
    <path id="f-5" data-name="f" d="M10732.6,1176.97c7.18,0,13,5.81,13,12.97s-5.82,12.97-13,12.97-13-5.81-13-12.97,5.82-12.97,13-12.97Z" style="fill-rule: evenodd;"/>
    <path id="f-6" data-name="f" d="M11127.6,1176.97c7.18,0,13,5.81,13,12.97s-5.82,12.97-13,12.97-13-5.81-13-12.97,5.82-12.97,13-12.97Z" style="fill-rule: evenodd;"/>
    <circle id="p" cx="1865.6" cy="1189.91" r="13.5" style="fill: #fff; stroke: #000; stroke-miterlimit: 10; stroke-width: 7.5px;"/>
    <circle id="p-2" data-name="p" cx="2438.6" cy="1189.91" r="13.5" style="fill: #fff; stroke: #000; stroke-miterlimit: 10; stroke-width: 7.5px;"/>
    <path id="p-3" data-name="p" d="M2910.6,1176.41c7.46,0,13.5,6.04,13.5,13.5s-6.04,13.5-13.5,13.5-13.5-6.04-13.5-13.5,6.04-13.5,13.5-13.5Z" style="fill: #fff; fill-rule: evenodd; stroke: #000; stroke-miterlimit: 10; stroke-width: 7.5px;"/>
    <path id="p-4" data-name="p" d="M4182.6,1176.41c7.46,0,13.5,6.04,13.5,13.5s-6.04,13.5-13.5,13.5-13.5-6.04-13.5-13.5,6.04-13.5,13.5-13.5Z" style="fill: #fff; fill-rule: evenodd; stroke: #000; stroke-miterlimit: 10; stroke-width: 7.5px;"/>
    <circle id="p-5" data-name="p" cx="5661.6" cy="1189.91" r="13.5" style="fill: #fff; stroke: #000; stroke-miterlimit: 10; stroke-width: 7.5px;"/>
    <path id="p-6" data-name="p" d="M6163.77,1176.41c7.45,0,13.49,6.04,13.49,13.5s-6.04,13.5-13.49,13.5-13.49-6.04-13.49-13.5,6.04-13.5,13.49-13.5Z" style="fill: #fff; fill-rule: evenodd; stroke: #000; stroke-miterlimit: 10; stroke-width: 7.5px;"/>
    <path id="p-7" data-name="p" d="M7948.77,1176.41c7.45,0,13.49,6.04,13.49,13.5s-6.04,13.5-13.49,13.5-13.49-6.04-13.49-13.5,6.04-13.5,13.49-13.5Z" style="fill: #fff; fill-rule: evenodd; stroke: #000; stroke-miterlimit: 10; stroke-width: 7.5px;"/>
    <path id="p-8" data-name="p" d="M8496.77,1176.41c7.45,0,13.49,6.04,13.49,13.5s-6.04,13.5-13.49,13.5-13.49-6.04-13.49-13.5,6.04-13.5,13.49-13.5Z" style="fill: #fff; fill-rule: evenodd; stroke: #000; stroke-miterlimit: 10; stroke-width: 7.5px;"/>
    <path id="p-9" data-name="p" d="M8496.77,1176.41c7.45,0,13.49,6.04,13.49,13.5s-6.04,13.5-13.49,13.5-13.49-6.04-13.49-13.5,6.04-13.5,13.49-13.5Z" style="fill: #fff; fill-rule: evenodd; stroke: #000; stroke-miterlimit: 10; stroke-width: 7.5px;"/>
    <rect id="s-3" data-name="s" x="3530.59" y="1170.9" width="38.02" height="38.02" style="stroke: #fff; stroke-miterlimit: 100; stroke-width: 13px;"/>
    <rect id="s-4" data-name="s" x="9402.39" y="1170.84" width="38.01" height="38.07" style="stroke: #fff; stroke-miterlimit: 100; stroke-width: 13px;"/>
    <circle id="c" cx="7299.6" cy="1189.91" r="21" style="fill: #f9cd02; stroke: #fff; stroke-miterlimit: 10; stroke-width: 16px;"/>
    <path id="c-2" data-name="c" d="M9011.74,1168.75c11.61,0,21.01,9.44,21.01,21.08s-9.41,21.08-21.01,21.08-21.02-9.44-21.02-21.08,9.41-21.08,21.02-21.08Z" style="fill: #6a29ff; fill-rule: evenodd; stroke: #fff; stroke-miterlimit: 10; stroke-width: 16px;"/>
    <path id="c-3" data-name="c" d="M9862.74,1168.66c11.59,0,20.98,9.46,20.98,21.13s-9.4,21.13-20.98,21.13-20.98-9.46-20.98-21.13,9.39-21.13,20.98-21.13Z" style="fill: #00a651; fill-rule: evenodd; stroke: #fff; stroke-miterlimit: 10; stroke-width: 16px;"/>
    <ellipse id="c-4" data-name="c" cx="6485.05" cy="1189.96" rx="21" ry="20.95" style="fill: #ed1c24; stroke: #fff; stroke-miterlimit: 100; stroke-width: 16px;"/>
  </g>
  <g id="a_lines">
    <path d="M11324.65,1326.86c48,27,188.39,156.05,336.95,156.05h590" style="fill: none; stroke: #000; stroke-miterlimit: 100; stroke-width: 3px;"/>
    <path d="M11324.65,1326.86c48,27,188.39,195.55,336.95,195.55h592" style="fill: none; stroke: #000; stroke-miterlimit: 100; stroke-width: 3px;"/>
    <path d="M11971.6,1569.91h-282c-148.56,0-265.87-172.82-338.57-225.62" style="fill: none; stroke: #000; stroke-miterlimit: 100; stroke-width: 3px;"/>
    <path d="M355.32,866.81s255.28,333.1,662.25,322.1" style="fill: none; stroke: #000; stroke-miterlimit: 100; stroke-width: 3px;"/>
    <path d="M5603.6,1373.33c97.48-83.35,243.32-167.37,509.15-183.37" style="fill: none; stroke: #000; stroke-miterlimit: 100; stroke-width: 3px;"/>
    <path d="M7922.6,1061.91s220.5,127,499,127" style="fill: none; stroke: #000; stroke-miterlimit: 100; stroke-width: 3px;"/>
    <path d="M1575.6,1188.91c-210.78,0-317,90.45-317,90.45" style="fill: none; stroke: #000; stroke-miterlimit: 100; stroke-width: 3px;"/>
    <path d="M11348.35,1344.29c211.21,209.7,350,433.83,634.18,438.1,16.38,.24,35.43,.52,159.07,.52" style="fill: none; stroke: #000; stroke-miterlimit: 100; stroke-width: 3px;"/>
    <path d="M10975.6,1188.91c268.5,0,368,251,719,251h550" style="fill: none; stroke: #000; stroke-miterlimit: 100; stroke-width: 3px;"/>
  </g>
  <g id="a_lines_trim" data-name="a_lines trim">
    <path id="l_2" d="M11200.64,1187.71c512.46,3.61,1271.91-30.98,1790.66-849.81" style="fill: none; fill-rule: evenodd; stroke: #000; stroke-miterlimit: 10;"/>
    <path id="l_1" d="M5719.6,1188.91s335.97-8,505.77-126" style="fill: none; fill-rule: evenodd; stroke: #000; stroke-miterlimit: 10;"/>
  </g>
  <g id="spam_elements">
    <path d="M2973.8,2147.37c0-43.94,34.67-79.93,82.36-79.93s81.92,35.55,81.92,79.93-34.67,79.93-82.36,79.93-81.92-35.55-81.92-79.93Zm128.73,0c0-26.5-19.43-48.58-46.81-48.58s-46.37,21.64-46.37,48.58,19.43,48.58,46.81,48.58,46.37-21.64,46.37-48.58Z" style="fill: #fff;"/>
    <path d="M3165.02,2070.08h117.69v30.91h-83.69v32.9h73.75v30.91h-73.75v59.84h-34v-154.57Z" style="fill: #fff;"/>
    <path d="M3305.89,2070.08h117.69v30.91h-83.69v32.9h73.75v30.91h-73.75v59.84h-34v-154.57Z" style="fill: #fff;"/>
    <path d="M3447.94,2070.08h34v154.57h-34v-154.57Z" style="fill: #fff;"/>
    <path d="M3509.48,2147.37c0-43.94,33.12-79.93,80.6-79.93,29.15,0,45.49,11.04,59.84,25.17l-20.31,23.41c-11.92-10.82-22.08-17.22-39.75-17.22-26.06,0-44.82,21.64-44.82,48.58s18.33,48.58,44.82,48.58c17.67,0,28.48-7.07,40.63-18.11l21.64,23.18c-15.9,17-33.56,26.28-63.37,26.28-45.49,0-79.27-35.11-79.27-79.93Z" style="fill: #fff;"/>
    <path d="M3673.36,2070.08h116.59v30.25h-82.8v31.36h72.87v30.25h-72.87v32.46h83.91v30.25h-117.69v-154.57Z" style="fill: #fff;"/>
    <path d="M2962.17,2021.09h3.09l13.31,29.41h-3.55l-3.42-7.72h-15.89l-3.46,7.72h-3.38l13.31-29.41Zm8.13,18.73l-6.63-14.89-6.67,14.89h13.31Z" style="fill: #fff;"/>
    <path d="M2984.07,2020.04h3.21v30.45h-3.21v-30.45Z" style="fill: #fff;"/>
    <path d="M3004.26,2048.2c2.96,0,5.05-1.21,6.8-3.04l2,1.79c-2.17,2.42-4.8,4.05-8.89,4.05-5.92,0-10.76-4.55-10.76-11.26,0-6.26,4.38-11.26,10.35-11.26,6.38,0,10.05,5.09,10.05,11.43,0,.29,0,.63-.04,1.13h-17.1c.46,4.55,3.8,7.17,7.59,7.17Zm6.3-9.76c-.38-3.92-2.63-7.26-6.88-7.26-3.71,0-6.55,3.09-7.01,7.26h13.89Z" style="fill: #fff;"/>
    <path d="M3019.45,2020.04h3.21v21.03l11.64-12.14h4l-9.05,9.26,9.34,12.31h-3.84l-7.72-10.05-4.38,4.42v5.63h-3.21v-30.45Z" style="fill: #fff;"/>
    <path d="M3041.39,2047.75l1.63-2.29c2.34,1.75,4.92,2.75,7.47,2.75s4.46-1.33,4.46-3.5-2.54-3-5.38-3.8c-3.38-.96-7.13-2.13-7.13-6.17,0-3.71,3.09-6.17,7.34-6.17,2.63,0,5.55,.92,7.76,2.38l-1.46,2.42c-2-1.29-4.3-2.09-6.38-2.09-2.54,0-4.17,1.33-4.17,3.21,0,2.04,2.67,2.84,5.55,3.71,3.34,1,6.93,2.29,6.93,6.26s-3.38,6.47-7.68,6.47c-3.09,0-6.51-1.21-8.93-3.17Z" style="fill: #fff;"/>
    <path d="M3062.33,2044.16c0-4.63,3.75-7.05,9.22-7.05,2.75,0,4.67,.38,6.59,.92v-.67c0-3.84-2.34-5.84-6.38-5.84-2.54,0-4.55,.63-6.55,1.54l-.96-2.63c2.38-1.08,4.67-1.83,7.84-1.83s5.42,.83,6.97,2.38c1.5,1.5,2.25,3.59,2.25,6.34v13.18h-3.17v-3.21c-1.5,1.92-3.96,3.67-7.76,3.67-4.05,0-8.05-2.29-8.05-6.8Zm15.85-1.59v-2c-1.59-.46-3.67-.92-6.3-.92-4,0-6.3,1.75-6.3,4.42s2.5,4.3,5.42,4.3c3.96,0,7.18-2.38,7.18-5.8Z" style="fill: #fff;"/>
    <path d="M3088.11,2028.93h3.21v3.75c1.42-2.34,3.67-4.21,7.38-4.21,5.21,0,8.26,3.5,8.26,8.63v13.39h-3.21v-12.6c0-4-2.17-6.51-5.97-6.51s-6.47,2.71-6.47,6.76v12.35h-3.21v-21.57Z" style="fill: #fff;"/>
    <path d="M3112.56,2039.69c0-7.05,5.13-11.22,10.3-11.22,4,0,6.59,2.17,8.26,4.59v-13.02h3.21v30.45h-3.21v-4.34c-1.75,2.59-4.3,4.8-8.26,4.8-5.17,0-10.3-4.09-10.3-11.26Zm18.69-.04c0-4.96-3.8-8.3-7.8-8.3s-7.59,3.09-7.59,8.39,3.5,8.34,7.59,8.34,7.8-3.38,7.8-8.43Z" style="fill: #fff;"/>
    <path d="M3141.51,2028.93h3.21v5.63c1.59-3.59,4.71-6.17,8.8-6.01v3.46h-.25c-4.71,0-8.55,3.38-8.55,9.89v8.59h-3.21v-21.57Z" style="fill: #fff;"/>
    <path d="M3156.16,2039.74c0-6.09,4.76-11.26,11.26-11.26s11.22,5.09,11.22,11.26-4.8,11.26-11.31,11.26-11.18-5.09-11.18-11.26Zm19.19,0c0-4.63-3.46-8.43-8.01-8.43s-7.88,3.8-7.88,8.43,3.42,8.38,7.97,8.38,7.93-3.75,7.93-8.38Z" style="fill: #fff;"/>
    <path d="M3181.06,2028.93h3.55l7.26,17.9,7.3-17.9h3.46l-9.39,21.74h-2.84l-9.34-21.74Z" style="fill: #fff;"/>
    <path d="M3205.05,2047.75l1.63-2.29c2.34,1.75,4.92,2.75,7.47,2.75s4.46-1.33,4.46-3.5-2.54-3-5.38-3.8c-3.38-.96-7.13-2.13-7.13-6.17,0-3.71,3.09-6.17,7.34-6.17,2.63,0,5.55,.92,7.76,2.38l-1.46,2.42c-2-1.29-4.3-2.09-6.38-2.09-2.54,0-4.17,1.33-4.17,3.21,0,2.04,2.67,2.84,5.55,3.71,3.34,1,6.93,2.29,6.93,6.26s-3.38,6.47-7.68,6.47c-3.09,0-6.51-1.21-8.93-3.17Z" style="fill: #fff;"/>
    <path d="M3227.62,2020.04h3.21v21.03l11.64-12.14h4l-9.05,9.26,9.34,12.31h-3.84l-7.72-10.05-4.38,4.42v5.63h-3.21v-30.45Z" style="fill: #fff;"/>
    <path d="M3249.48,2056.21l1.08-2.54c1.04,.54,2,.79,3.38,.79,1.92,0,3.13-1,4.42-4.05l-9.8-21.49h3.55l7.84,17.98,6.93-17.98h3.42l-9.05,22.28c-1.84,4.46-3.92,6.09-7.18,6.09-1.79,0-3.13-.38-4.59-1.08Z" style="fill: #fff;"/>
    <path d="M3299.25,2021.09h3.09l13.31,29.41h-3.55l-3.42-7.72h-15.89l-3.46,7.72h-3.38l13.31-29.41Zm8.13,18.73l-6.63-14.89-6.67,14.89h13.31Z" style="fill: #fff;"/>
    <path d="M3320.86,2028.93h3.21v4.34c1.75-2.59,4.3-4.8,8.26-4.8,5.17,0,10.3,4.09,10.3,11.26s-5.09,11.22-10.3,11.22c-4,0-6.59-2.17-8.26-4.59v10.8h-3.21v-28.24Zm18.48,10.76c0-5.09-3.5-8.34-7.59-8.34s-7.8,3.38-7.8,8.39,3.8,8.34,7.8,8.34,7.59-3.09,7.59-8.38Z" style="fill: #fff;"/>
    <path d="M3346.93,2044.16c0-4.63,3.75-7.05,9.22-7.05,2.75,0,4.67,.38,6.59,.92v-.67c0-3.84-2.34-5.84-6.38-5.84-2.54,0-4.55,.63-6.55,1.54l-.96-2.63c2.38-1.08,4.67-1.83,7.84-1.83s5.42,.83,6.97,2.38c1.5,1.5,2.25,3.59,2.25,6.34v13.18h-3.17v-3.21c-1.5,1.92-3.96,3.67-7.76,3.67-4.05,0-8.05-2.29-8.05-6.8Zm15.85-1.59v-2c-1.59-.46-3.67-.92-6.3-.92-4,0-6.3,1.75-6.3,4.42s2.5,4.3,5.42,4.3c3.96,0,7.18-2.38,7.18-5.8Z" style="fill: #fff;"/>
    <path d="M3372.72,2028.93h3.21v5.63c1.59-3.59,4.71-6.17,8.8-6.01v3.46h-.25c-4.71,0-8.55,3.38-8.55,9.89v8.59h-3.21v-21.57Z" style="fill: #fff;"/>
    <path d="M3390.74,2044.78v-13.02h-3v-2.84h3v-6.51h3.21v6.51h6.84v2.84h-6.84v12.6c0,2.63,1.46,3.59,3.63,3.59,1.08,0,2-.21,3.13-.75v2.75c-1.13,.58-2.34,.92-3.88,.92-3.46,0-6.09-1.71-6.09-6.09Z" style="fill: #fff;"/>
    <path d="M3406.47,2028.93h3.21v3.63c1.42-2.13,3.34-4.09,6.97-4.09s5.76,1.88,6.93,4.3c1.54-2.38,3.84-4.3,7.59-4.3,4.96,0,8.01,3.34,8.01,8.68v13.35h-3.21v-12.6c0-4.17-2.09-6.51-5.59-6.51-3.25,0-5.97,2.42-5.97,6.67v12.43h-3.17v-12.68c0-4.05-2.13-6.42-5.55-6.42s-6.01,2.84-6.01,6.8v12.31h-3.21v-21.57Z" style="fill: #fff;"/>
    <path d="M3455.65,2048.2c2.96,0,5.05-1.21,6.8-3.04l2,1.79c-2.17,2.42-4.8,4.05-8.89,4.05-5.92,0-10.76-4.55-10.76-11.26,0-6.26,4.38-11.26,10.35-11.26,6.38,0,10.05,5.09,10.05,11.43,0,.29,0,.63-.04,1.13h-17.1c.46,4.55,3.8,7.17,7.59,7.17Zm6.3-9.76c-.38-3.92-2.63-7.26-6.88-7.26-3.71,0-6.55,3.09-7.01,7.26h13.89Z" style="fill: #fff;"/>
    <path d="M3470.84,2028.93h3.21v3.75c1.42-2.34,3.67-4.21,7.38-4.21,5.21,0,8.26,3.5,8.26,8.63v13.39h-3.21v-12.6c0-4-2.17-6.51-5.97-6.51s-6.47,2.71-6.47,6.76v12.35h-3.21v-21.57Z" style="fill: #fff;"/>
    <path d="M3497.66,2044.78v-13.02h-3v-2.84h3v-6.51h3.21v6.51h6.84v2.84h-6.84v12.6c0,2.63,1.46,3.59,3.63,3.59,1.08,0,2-.21,3.13-.75v2.75c-1.13,.58-2.34,.92-3.88,.92-3.46,0-6.09-1.71-6.09-6.09Z" style="fill: #fff;"/>
    <path d="M9577.21,2158.41v-88.32h34v87.44c0,25.17,12.59,38.2,33.34,38.2s33.34-12.59,33.34-37.1v-88.54h34v87.22c0,46.81-26.28,69.78-67.79,69.78s-66.91-23.18-66.91-68.67Z" style="fill: #fff;"/>
    <path d="M9745.47,2070.08h63.15c36.88,0,59.18,21.86,59.18,53.88,0,35.77-27.82,54.32-62.49,54.32h-25.83v46.37h-34v-154.57Zm60.94,77.95c17,0,26.94-10.16,26.94-23.85,0-15.24-10.6-23.41-27.6-23.41h-26.28v47.25h26.94Z" style="fill: #fff;"/>
    <path d="M9889.48,2070.08h60.28c48.58,0,82.14,33.34,82.14,77.28s-33.56,77.28-82.14,77.28h-60.28v-154.57Zm60.28,123.88c27.82,0,46.59-18.77,46.59-46.59s-18.77-46.59-46.59-46.59h-26.28v93.18h26.28Z" style="fill: #fff;"/>
    <path d="M10100.95,2068.98h31.36l66.24,155.67h-35.55l-14.13-34.67h-65.36l-14.13,34.67h-34.67l66.24-155.67Zm35.77,90.97l-20.54-50.12-20.54,50.12h41.07Z" style="fill: #fff;"/>
    <path d="M10233.81,2101.44h-47.03v-31.36h128.07v31.36h-47.03v123.21h-34v-123.21Z" style="fill: #fff;"/>
    <path d="M10334.92,2070.08h116.59v30.25h-82.8v31.36h72.87v30.25h-72.87v32.46h83.91v30.25h-117.69v-154.57Z" style="fill: #fff;"/>
    <path d="M10469.79,2202.13l20.09-24.07c13.91,11.48,28.48,18.77,46.15,18.77,13.91,0,22.3-5.52,22.3-15.01,0-8.61-5.3-13.03-31.13-19.65-31.13-7.95-51.23-16.56-51.23-47.7,0-28.04,22.52-46.59,54.1-46.59,22.52,0,41.73,7.07,57.41,19.65l-17.67,25.61c-13.69-9.5-27.16-15.24-40.19-15.24s-19.87,5.96-19.87,13.91c0,10.16,6.62,13.47,33.34,20.31,31.36,8.17,49.02,19.43,49.02,46.81,0,30.69-23.41,47.92-56.75,47.92-23.41,0-47.03-8.17-65.58-24.73Z" style="fill: #fff;"/>
    <path d="M6622.4,100.06h-23.73l-26.3-42.31-26.3,42.31h-23.73V0h21.87V65.33l28.16-42.74h.57l27.87,42.31V0h21.58V100.06Z" style="fill: #fff;"/>
    <path d="M10285.75,1632.05h123.16v27.96h-123.16v-27.96Z" style="fill: #fff;"/>
    <path d="M10285.75,1582.77h123.16v27.96h-123.16v-27.96Z" style="fill: #fff;"/>
    <path d="M10285.75,1533.5h123.16v27.96h-123.16v-27.96Z" style="fill: #fff;"/>
    <path d="M6939.67,2102.1l-51.45,42.17c-19.21,15.9-26.72,24.29-26.72,37.1s8.61,20.09,20.76,20.09,20.09-6.62,31.58-20.76l23.85,19.21c-15.24,20.76-30.03,32.02-57.63,32.02-32.02,0-53.21-18.77-53.21-48.14,0-25.83,13.25-38.64,40.63-59.84l25.17-19.43h-67.35v-29.37h114.38v26.94Z" style="fill: #fff;"/>
    <path d="M6795.16,2110.5h-35.77v-35.33h35.77v35.33Z" style="fill: #fff;"/>
    <path d="M6740,2152.45c0,44.82-27.82,79.93-68.89,79.93s-68.45-34.67-68.45-79.93,27.6-79.93,68.89-79.93,68.45,34.67,68.45,79.93Zm-102.46,0c0,28.04,13.69,49.24,34,49.24s33.56-20.54,33.56-49.24-13.47-49.24-34-49.24-33.56,20.76-33.56,49.24Z" style="fill: #fff;"/>
  </g>
</svg>